<svg id="Layer_1" data-name="Layer 1" xmlns="http://www.w3.org/2000/svg" xmlns:xlink="http://www.w3.org/1999/xlink" viewBox="0 0 835.75 1000"><defs><style>.cls-1{fill:url(#linear-gradient);}.cls-2{fill:#111c1e;}.cls-3{fill:#219fa5;}.cls-4{fill:#73c9c9;}.cls-5{fill:#a6e8e6;}.cls-6{fill:url(#linear-gradient-2);}.cls-7{fill:#1b514f;opacity:0.16;}</style><linearGradient id="linear-gradient" x1="824.7" y1="824.59" x2="11.15" y2="31.77" gradientUnits="userSpaceOnUse"><stop offset="0.04" stop-color="#3ebbb1"/><stop offset="0.46" stop-color="#31ca86"/><stop offset="0.49" stop-color="#30cb82"/><stop offset="0.65" stop-color="#2ad171"/><stop offset="0.76" stop-color="#28d36b"/><stop offset="0.82" stop-color="#2ed46f"/><stop offset="0.89" stop-color="#40d77b"/><stop offset="0.98" stop-color="#5edd8f"/><stop offset="1" stop-color="#64de93"/></linearGradient><linearGradient id="linear-gradient-2" x1="621.74" y1="793.62" x2="488.74" y2="1057.89" gradientUnits="userSpaceOnUse"><stop offset="0.04" stop-color="#006674"/><stop offset="0.46" stop-color="#219fa5"/><stop offset="0.64" stop-color="#34b1a3"/><stop offset="0.79" stop-color="#3ebba2"/></linearGradient></defs><title>Skript-Hub_icon_version-1_original</title><rect class="cls-1" x="22.96" y="32.92" width="812.61" height="812.61"/><rect class="cls-2" x="137.78" y="147.74" width="582.96" height="582.96"/><path class="cls-3" d="M137.78,0h0A216.07,216.07,0,0,0,23,33V402.76a216.15,216.15,0,0,0,114.82,33h0c119.83,0,217.88-98.05,217.88-217.88h0C355.66,98,257.61,0,137.78,0Z"/><circle class="cls-4" cx="137.78" cy="217.87" r="137.97"/><circle class="cls-5" cx="137.78" cy="217.87" r="60.42"/><polygon class="cls-6" points="835.57 845.53 355.66 1000 355.66 845.53 835.57 845.53"/><path class="cls-4" d="M345.09,654.86l25.11-30c13.76,12,31.59,20.21,47.51,20.21,18.25,0,27.18-7.19,27.18-18.66,0-12.18-11-16.09-27.89-23l-25.13-10.72c-20-8.15-39-24.61-39-52.72,0-32.05,28.63-57.64,68.89-57.64,22.27,0,45.56,8.78,62.21,25.35L461.87,535.2c-12.74-9.77-24.86-15.15-40.14-15.15-15.08,0-24.67,6.28-24.67,17.34,0,11.87,12.65,16.18,29.53,22.89l24.64,10c23.62,9.55,38.36,25.28,38.36,52.61,0,32.12-26.77,59.94-72.86,59.94C391.56,682.82,364.82,673.29,345.09,654.86Z"/><path class="cls-4" d="M508.38,485.86h43.73v79h1.08l57.65-79h48l-58.5,77.19,69.26,116.21H621.7l-47-81.7-22.57,29.87v51.83H508.38Z"/><polygon class="cls-7" points="355.66 845.53 835.57 845.53 779.83 863.47 355.66 894.67 355.66 845.53"/></svg>